<?xml version="1.0" encoding="UTF-8"?>
<svg id="Layer_1" xmlns="http://www.w3.org/2000/svg" xmlns:xlink="http://www.w3.org/1999/xlink" version="1.1" viewBox="0 0 161.57 161.57">
  <!-- Generator: Adobe Illustrator 29.8.2, SVG Export Plug-In . SVG Version: 2.1.1 Build 3)  -->
  <defs>
    <style>
      .st0 {
        fill: url(#linear-gradient);
      }

      .st1 {
        fill: #fff;
      }
    </style>
    <linearGradient id="linear-gradient" x1="96.69" y1="54.36" x2="66.09" y2="107.36" gradientUnits="userSpaceOnUse">
      <stop offset="0" stop-color="#14ff92"/>
      <stop offset=".43" stop-color="#4f9bd5"/>
      <stop offset="1" stop-color="#94f"/>
    </linearGradient>
  </defs>
  <path class="st0" d="M108.52,66.71h-54.25c5.11-9.77,15.34-16.44,27.13-16.44s22.02,6.67,27.13,16.44ZM81.39,111.46c11.85,0,22.12-6.74,27.2-16.6h-54.41c5.08,9.85,15.35,16.6,27.2,16.6ZM97.42,72.8h-45.55c-1.98,11.4,7.65,15.98,13.49,15.98h45.59c1.6-10.6-7.67-15.98-13.53-15.98Z"/>
  <path class="st1" d="M81.1,123.44h-.11c-19.39-.03-38.73-6.92-55.92-19.94-12.93-9.8-20.06-19.51-20.36-19.92-.9-1.24-.91-2.91-.03-4.16.3-.42,7.44-10.48,20.32-20.63,17.14-13.51,36.35-20.65,55.55-20.65s39.1,7.14,56.37,20.64c12.98,10.15,20.11,20.22,20.4,20.64.88,1.25.86,2.92-.03,4.16-.3.41-7.44,10.15-20.37,19.97-17.16,13.02-36.46,19.9-55.81,19.9ZM12.14,81.43c2.71,3.26,8.71,9.92,17.43,16.5,11.08,8.36,29,18.32,51.42,18.35h.1c22.36,0,40.23-9.95,51.3-18.31,8.73-6.59,14.74-13.27,17.45-16.54-2.7-3.37-8.72-10.3-17.52-17.16-11.12-8.66-29.14-18.98-51.78-18.98s-39.92,10.32-50.95,18.98c-8.74,6.86-14.75,13.79-17.45,17.16ZM7.6,81.47h0,0Z"/>
</svg>